<svg
    color="#00aeff"
    width="200"
    height="200"
    viewBox="114 94 151 150"
    version="1.1"
    xmlns="http://www.w3.org/2000/svg"
    xmlns:xlink="http://www.w3.org/1999/xlink">
    <defs>
      <path
        d="M67 134c37.003 0 67-29.997 67-67S104.003 0 67 0 0 29.997 0 67s29.997 67 67 67z"
        id="kawaii-planet__path-1"
      />
      <path
        d="M87.372 3.153C114.414 11.775 134 37.1 134 67s-19.586 55.225-46.628 63.847C108.752 117.633 123 93.98 123 67c0-26.98-14.247-50.633-35.628-63.847z"
        id="kawaii-planet__path-3"
      />
    </defs>
    <g
      id="kawaii-planet"
      stroke="none"
      stroke-width="1"
      fill="none"
      fill-rule="evenodd"
      transform="translate(115.000000, 94.000000)">
      <g id="kawaii-planet__body-color" transform="translate(8.000000, 8.000000)">
        <mask id="kawaii-planet__mask-2" fill="white">
          <use xmlns:xlink="http://www.w3.org/1999/xlink" xlink:href="#kawaii-planet__path-1" />
        </mask>
        <use
          id="kp-body-color-"
          fill="#00aeff"
          xmlns:xlink="http://www.w3.org/1999/xlink"
          xlink:href="#kawaii-planet__path-1"
        />
        <mask id="kawaii-planet__mask-4" fill="white">
          <use xmlns:xlink="http://www.w3.org/1999/xlink" xlink:href="#kawaii-planet__path-3" />
        </mask>
        <use
          id="kp-body-color-darker"
          fill="#111111"
          opacity="0.233908582"
          xmlns:xlink="http://www.w3.org/1999/xlink"
          xlink:href="#kawaii-planet__path-3"
        />
      </g>
      <g id="kawaii-face" transform="translate(42.000000, 65.000000)">
        <defs>
          <path
            d="M1.45656876,3.14684877 C1.45656876,3.14684877 1.45656876,3.14684877 1.45656876,3.14684877 L0,3.14685315 C0,2.31818182 0.346033696,1.50734266 0.949429952,0.922027972 C1.55390756,0.335664336 2.38979521,0 3.2440659,0 L25.9525272,0 C26.8067979,0 27.6416041,0.335664336 28.2460818,0.922027972 C28.8505594,1.50734266 29.1965931,2.31818182 29.1965931,3.14685315 C29.1890236,5.85734266 28.240675,8.44825175 26.7127199,10.6814685 C25.1771954,12.9104895 23.0317865,14.8122378 20.4040931,16.0227273 C18.6544603,16.8251748 16.6809868,17.3087413 14.5982965,17.3076923 C11.4666916,17.3076923 8.61299495,16.2241259 6.33025392,14.5951049 C4.0399434,12.9587413 2.264358,10.779021 1.16245695,8.33811189 C0.431460764,6.70909091 0.0010813553,4.95314685 0,3.14685315 L1.45656896,3.14685315 Z"
            id="kawaii-face__path-1"
          />
        </defs>
        <g id="kawaii-face__mouth" transform="translate(18.000000, 16.000000)">
          <path
            d="M6,1.9999998 C6.00066667,3.14799969 6.26599997,4.26466625 6.7166666,5.29933281 C7.39599986,6.85066599 8.49066642,8.23599919 9.90199962,9.27666575 C11.3099995,10.311999 13.0693326,10.9999989 14.9999991,10.9999989 C16.283999,11.0006656 17.5006655,10.6939989 18.5793321,10.1833323 C20.1993319,9.41466574 21.5219985,8.20599919 22.468665,6.788666 C23.4106649,5.36999947 23.9953316,3.72333297 23.9999982,1.9999998 C23.9999982,0.895333245 23.104665,7.10542736e-15 21.9999984,7.10542736e-15 C20.8953319,7.10542736e-15 19.9999986,0.895333245 19.9999986,1.9999998 C20.0006653,2.51933308 19.8739986,3.11066636 19.6166653,3.7006663 C19.233332,4.58733288 18.5526654,5.4513328 17.7299988,6.0519994 C16.9033323,6.65733268 15.9686657,6.99999931 14.9999991,6.99999931 C14.3513325,6.99999931 13.7259992,6.84799932 13.1299993,6.56666602 C12.2373327,6.14866606 11.4226661,5.4193328 10.8599995,4.57066622 C10.2919996,3.7246663 9.99533294,2.77733306 9.99999961,1.9999998 C9.99999961,0.895333245 9.10466636,7.10542736e-15 7.9999998,7.10542736e-15 C6.89533325,7.10542736e-15 6,0.895333245 6,1.9999998"
            id="kawaii-face__mouth__sad"
            fill="#000000"
            transform="translate(14.999999, 5.500000) scale(1, -1) translate(-14.999999, -5.500000)"
          />
        </g>
        <g
          id="kawaii-face__blush"
          transform="translate(0.000000, 15.000000)"
          fill="#000000"
          opacity="0.2">
          <circle id="Oval" cx="3" cy="3" r="3" />
          <circle id="Oval" cx="63" cy="3" r="3" />
        </g>
        <g id="kawaii-face__eyes" transform="translate(2.000000, 0.000000)" fill="#000000">
          <g id="kawaii-face__eyes__circle" transform="translate(1.000000, 2.000000)">
            <circle id="Oval-3" cx="4.5" cy="4.5" r="4.5" />
            <circle id="Oval-3" cx="56.5" cy="4.5" r="4.5" />
          </g>
        </g>
      </g>
    </g>
  </svg>
